<mxfile host="app.diagrams.net" agent="Mozilla/5.0 (Windows NT 10.0; Win64; x64; rv:135.0) Gecko/20100101 Firefox/135.0" version="26.0.16">
  <diagram name="Страница — 1" id="oDpgG96rJYEBg8DNex0P">
    <mxGraphModel dx="989" dy="520" grid="0" gridSize="10" guides="1" tooltips="1" connect="1" arrows="1" fold="1" page="1" pageScale="1" pageWidth="827" pageHeight="1169" math="0" shadow="0">
      <root>
        <mxCell id="0" />
        <mxCell id="1" parent="0" />
        <mxCell id="0b7gcQ_teyY_5R-YkqwQ-1" value="master-emps.json" style="shape=table;startSize=30;container=1;collapsible=1;childLayout=tableLayout;fixedRows=1;rowLines=0;fontStyle=1;align=center;resizeLast=1;html=1;" vertex="1" parent="1">
          <mxGeometry x="50" y="15" width="180" height="180" as="geometry" />
        </mxCell>
        <mxCell id="0b7gcQ_teyY_5R-YkqwQ-2" value="" style="shape=tableRow;horizontal=0;startSize=0;swimlaneHead=0;swimlaneBody=0;fillColor=none;collapsible=0;dropTarget=0;points=[[0,0.5],[1,0.5]];portConstraint=eastwest;top=0;left=0;right=0;bottom=1;" vertex="1" parent="0b7gcQ_teyY_5R-YkqwQ-1">
          <mxGeometry y="30" width="180" height="30" as="geometry" />
        </mxCell>
        <mxCell id="0b7gcQ_teyY_5R-YkqwQ-3" value="PK" style="shape=partialRectangle;connectable=0;fillColor=none;top=0;left=0;bottom=0;right=0;fontStyle=1;overflow=hidden;whiteSpace=wrap;html=1;" vertex="1" parent="0b7gcQ_teyY_5R-YkqwQ-2">
          <mxGeometry width="46.142857142857196" height="30" as="geometry">
            <mxRectangle width="46.142857142857196" height="30" as="alternateBounds" />
          </mxGeometry>
        </mxCell>
        <mxCell id="0b7gcQ_teyY_5R-YkqwQ-4" value="emp_num" style="shape=partialRectangle;connectable=0;fillColor=none;top=0;left=0;bottom=0;right=0;align=left;spacingLeft=6;fontStyle=5;overflow=hidden;whiteSpace=wrap;html=1;" vertex="1" parent="0b7gcQ_teyY_5R-YkqwQ-2">
          <mxGeometry x="46.142857142857196" width="133.8571428571428" height="30" as="geometry">
            <mxRectangle width="133.8571428571428" height="30" as="alternateBounds" />
          </mxGeometry>
        </mxCell>
        <mxCell id="0b7gcQ_teyY_5R-YkqwQ-5" value="" style="shape=tableRow;horizontal=0;startSize=0;swimlaneHead=0;swimlaneBody=0;fillColor=none;collapsible=0;dropTarget=0;points=[[0,0.5],[1,0.5]];portConstraint=eastwest;top=0;left=0;right=0;bottom=0;" vertex="1" parent="0b7gcQ_teyY_5R-YkqwQ-1">
          <mxGeometry y="60" width="180" height="30" as="geometry" />
        </mxCell>
        <mxCell id="0b7gcQ_teyY_5R-YkqwQ-6" value="text" style="shape=partialRectangle;connectable=0;fillColor=none;top=0;left=0;bottom=0;right=0;editable=1;overflow=hidden;whiteSpace=wrap;html=1;" vertex="1" parent="0b7gcQ_teyY_5R-YkqwQ-5">
          <mxGeometry width="46.142857142857196" height="30" as="geometry">
            <mxRectangle width="46.142857142857196" height="30" as="alternateBounds" />
          </mxGeometry>
        </mxCell>
        <mxCell id="0b7gcQ_teyY_5R-YkqwQ-7" value="last_name" style="shape=partialRectangle;connectable=0;fillColor=none;top=0;left=0;bottom=0;right=0;align=left;spacingLeft=6;overflow=hidden;whiteSpace=wrap;html=1;" vertex="1" parent="0b7gcQ_teyY_5R-YkqwQ-5">
          <mxGeometry x="46.142857142857196" width="133.8571428571428" height="30" as="geometry">
            <mxRectangle width="133.8571428571428" height="30" as="alternateBounds" />
          </mxGeometry>
        </mxCell>
        <mxCell id="0b7gcQ_teyY_5R-YkqwQ-8" value="" style="shape=tableRow;horizontal=0;startSize=0;swimlaneHead=0;swimlaneBody=0;fillColor=none;collapsible=0;dropTarget=0;points=[[0,0.5],[1,0.5]];portConstraint=eastwest;top=0;left=0;right=0;bottom=0;" vertex="1" parent="0b7gcQ_teyY_5R-YkqwQ-1">
          <mxGeometry y="90" width="180" height="30" as="geometry" />
        </mxCell>
        <mxCell id="0b7gcQ_teyY_5R-YkqwQ-9" value="text" style="shape=partialRectangle;connectable=0;fillColor=none;top=0;left=0;bottom=0;right=0;editable=1;overflow=hidden;whiteSpace=wrap;html=1;" vertex="1" parent="0b7gcQ_teyY_5R-YkqwQ-8">
          <mxGeometry width="46.142857142857196" height="30" as="geometry">
            <mxRectangle width="46.142857142857196" height="30" as="alternateBounds" />
          </mxGeometry>
        </mxCell>
        <mxCell id="0b7gcQ_teyY_5R-YkqwQ-10" value="first_name" style="shape=partialRectangle;connectable=0;fillColor=none;top=0;left=0;bottom=0;right=0;align=left;spacingLeft=6;overflow=hidden;whiteSpace=wrap;html=1;" vertex="1" parent="0b7gcQ_teyY_5R-YkqwQ-8">
          <mxGeometry x="46.142857142857196" width="133.8571428571428" height="30" as="geometry">
            <mxRectangle width="133.8571428571428" height="30" as="alternateBounds" />
          </mxGeometry>
        </mxCell>
        <mxCell id="0b7gcQ_teyY_5R-YkqwQ-11" value="" style="shape=tableRow;horizontal=0;startSize=0;swimlaneHead=0;swimlaneBody=0;fillColor=none;collapsible=0;dropTarget=0;points=[[0,0.5],[1,0.5]];portConstraint=eastwest;top=0;left=0;right=0;bottom=0;" vertex="1" parent="0b7gcQ_teyY_5R-YkqwQ-1">
          <mxGeometry y="120" width="180" height="30" as="geometry" />
        </mxCell>
        <mxCell id="0b7gcQ_teyY_5R-YkqwQ-12" value="text" style="shape=partialRectangle;connectable=0;fillColor=none;top=0;left=0;bottom=0;right=0;editable=1;overflow=hidden;whiteSpace=wrap;html=1;" vertex="1" parent="0b7gcQ_teyY_5R-YkqwQ-11">
          <mxGeometry width="46.142857142857196" height="30" as="geometry">
            <mxRectangle width="46.142857142857196" height="30" as="alternateBounds" />
          </mxGeometry>
        </mxCell>
        <mxCell id="0b7gcQ_teyY_5R-YkqwQ-13" value="second_name" style="shape=partialRectangle;connectable=0;fillColor=none;top=0;left=0;bottom=0;right=0;align=left;spacingLeft=6;overflow=hidden;whiteSpace=wrap;html=1;" vertex="1" parent="0b7gcQ_teyY_5R-YkqwQ-11">
          <mxGeometry x="46.142857142857196" width="133.8571428571428" height="30" as="geometry">
            <mxRectangle width="133.8571428571428" height="30" as="alternateBounds" />
          </mxGeometry>
        </mxCell>
        <mxCell id="0b7gcQ_teyY_5R-YkqwQ-14" value="" style="shape=tableRow;horizontal=0;startSize=0;swimlaneHead=0;swimlaneBody=0;fillColor=none;collapsible=0;dropTarget=0;points=[[0,0.5],[1,0.5]];portConstraint=eastwest;top=0;left=0;right=0;bottom=0;" vertex="1" parent="0b7gcQ_teyY_5R-YkqwQ-1">
          <mxGeometry y="150" width="180" height="30" as="geometry" />
        </mxCell>
        <mxCell id="0b7gcQ_teyY_5R-YkqwQ-15" value="integer" style="shape=partialRectangle;connectable=0;fillColor=none;top=0;left=0;bottom=0;right=0;editable=1;overflow=hidden;" vertex="1" parent="0b7gcQ_teyY_5R-YkqwQ-14">
          <mxGeometry width="46.142857142857196" height="30" as="geometry">
            <mxRectangle width="46.142857142857196" height="30" as="alternateBounds" />
          </mxGeometry>
        </mxCell>
        <mxCell id="0b7gcQ_teyY_5R-YkqwQ-16" value="coeff" style="shape=partialRectangle;connectable=0;fillColor=none;top=0;left=0;bottom=0;right=0;align=left;spacingLeft=6;overflow=hidden;" vertex="1" parent="0b7gcQ_teyY_5R-YkqwQ-14">
          <mxGeometry x="46.142857142857196" width="133.8571428571428" height="30" as="geometry">
            <mxRectangle width="133.8571428571428" height="30" as="alternateBounds" />
          </mxGeometry>
        </mxCell>
        <mxCell id="0b7gcQ_teyY_5R-YkqwQ-17" value="clients.txt" style="shape=table;startSize=30;container=1;collapsible=1;childLayout=tableLayout;fixedRows=1;rowLines=0;fontStyle=1;align=center;resizeLast=1;html=1;" vertex="1" parent="1">
          <mxGeometry x="262" y="150" width="180" height="120" as="geometry" />
        </mxCell>
        <mxCell id="0b7gcQ_teyY_5R-YkqwQ-18" value="" style="shape=tableRow;horizontal=0;startSize=0;swimlaneHead=0;swimlaneBody=0;fillColor=none;collapsible=0;dropTarget=0;points=[[0,0.5],[1,0.5]];portConstraint=eastwest;top=0;left=0;right=0;bottom=1;" vertex="1" parent="0b7gcQ_teyY_5R-YkqwQ-17">
          <mxGeometry y="30" width="180" height="30" as="geometry" />
        </mxCell>
        <mxCell id="0b7gcQ_teyY_5R-YkqwQ-19" value="PK" style="shape=partialRectangle;connectable=0;fillColor=none;top=0;left=0;bottom=0;right=0;fontStyle=1;overflow=hidden;whiteSpace=wrap;html=1;" vertex="1" parent="0b7gcQ_teyY_5R-YkqwQ-18">
          <mxGeometry width="45.285714285714164" height="30" as="geometry">
            <mxRectangle width="45.285714285714164" height="30" as="alternateBounds" />
          </mxGeometry>
        </mxCell>
        <mxCell id="0b7gcQ_teyY_5R-YkqwQ-20" value="passport" style="shape=partialRectangle;connectable=0;fillColor=none;top=0;left=0;bottom=0;right=0;align=left;spacingLeft=6;fontStyle=5;overflow=hidden;whiteSpace=wrap;html=1;" vertex="1" parent="0b7gcQ_teyY_5R-YkqwQ-18">
          <mxGeometry x="45.285714285714164" width="134.71428571428584" height="30" as="geometry">
            <mxRectangle width="134.71428571428584" height="30" as="alternateBounds" />
          </mxGeometry>
        </mxCell>
        <mxCell id="0b7gcQ_teyY_5R-YkqwQ-21" value="" style="shape=tableRow;horizontal=0;startSize=0;swimlaneHead=0;swimlaneBody=0;fillColor=none;collapsible=0;dropTarget=0;points=[[0,0.5],[1,0.5]];portConstraint=eastwest;top=0;left=0;right=0;bottom=0;" vertex="1" parent="0b7gcQ_teyY_5R-YkqwQ-17">
          <mxGeometry y="60" width="180" height="30" as="geometry" />
        </mxCell>
        <mxCell id="0b7gcQ_teyY_5R-YkqwQ-22" value="text" style="shape=partialRectangle;connectable=0;fillColor=none;top=0;left=0;bottom=0;right=0;editable=1;overflow=hidden;whiteSpace=wrap;html=1;" vertex="1" parent="0b7gcQ_teyY_5R-YkqwQ-21">
          <mxGeometry width="45.285714285714164" height="30" as="geometry">
            <mxRectangle width="45.285714285714164" height="30" as="alternateBounds" />
          </mxGeometry>
        </mxCell>
        <mxCell id="0b7gcQ_teyY_5R-YkqwQ-23" value="full_client_name" style="shape=partialRectangle;connectable=0;fillColor=none;top=0;left=0;bottom=0;right=0;align=left;spacingLeft=6;overflow=hidden;whiteSpace=wrap;html=1;" vertex="1" parent="0b7gcQ_teyY_5R-YkqwQ-21">
          <mxGeometry x="45.285714285714164" width="134.71428571428584" height="30" as="geometry">
            <mxRectangle width="134.71428571428584" height="30" as="alternateBounds" />
          </mxGeometry>
        </mxCell>
        <mxCell id="0b7gcQ_teyY_5R-YkqwQ-27" value="" style="shape=tableRow;horizontal=0;startSize=0;swimlaneHead=0;swimlaneBody=0;fillColor=none;collapsible=0;dropTarget=0;points=[[0,0.5],[1,0.5]];portConstraint=eastwest;top=0;left=0;right=0;bottom=0;" vertex="1" parent="0b7gcQ_teyY_5R-YkqwQ-17">
          <mxGeometry y="90" width="180" height="30" as="geometry" />
        </mxCell>
        <mxCell id="0b7gcQ_teyY_5R-YkqwQ-28" value="integer" style="shape=partialRectangle;connectable=0;fillColor=none;top=0;left=0;bottom=0;right=0;editable=1;overflow=hidden;whiteSpace=wrap;html=1;" vertex="1" parent="0b7gcQ_teyY_5R-YkqwQ-27">
          <mxGeometry width="45.285714285714164" height="30" as="geometry">
            <mxRectangle width="45.285714285714164" height="30" as="alternateBounds" />
          </mxGeometry>
        </mxCell>
        <mxCell id="0b7gcQ_teyY_5R-YkqwQ-29" value="vin" style="shape=partialRectangle;connectable=0;fillColor=none;top=0;left=0;bottom=0;right=0;align=left;spacingLeft=6;overflow=hidden;whiteSpace=wrap;html=1;" vertex="1" parent="0b7gcQ_teyY_5R-YkqwQ-27">
          <mxGeometry x="45.285714285714164" width="134.71428571428584" height="30" as="geometry">
            <mxRectangle width="134.71428571428584" height="30" as="alternateBounds" />
          </mxGeometry>
        </mxCell>
        <mxCell id="0b7gcQ_teyY_5R-YkqwQ-30" value="Задания мастеров.xlsx" style="shape=table;startSize=30;container=1;collapsible=1;childLayout=tableLayout;fixedRows=1;rowLines=0;fontStyle=1;align=center;resizeLast=1;html=1;" vertex="1" parent="1">
          <mxGeometry x="578" y="70" width="180" height="270" as="geometry" />
        </mxCell>
        <mxCell id="0b7gcQ_teyY_5R-YkqwQ-34" value="" style="shape=tableRow;horizontal=0;startSize=0;swimlaneHead=0;swimlaneBody=0;fillColor=none;collapsible=0;dropTarget=0;points=[[0,0.5],[1,0.5]];portConstraint=eastwest;top=0;left=0;right=0;bottom=0;" vertex="1" parent="0b7gcQ_teyY_5R-YkqwQ-30">
          <mxGeometry y="30" width="180" height="30" as="geometry" />
        </mxCell>
        <mxCell id="0b7gcQ_teyY_5R-YkqwQ-35" value="text" style="shape=partialRectangle;connectable=0;fillColor=none;top=0;left=0;bottom=0;right=0;editable=1;overflow=hidden;whiteSpace=wrap;html=1;" vertex="1" parent="0b7gcQ_teyY_5R-YkqwQ-34">
          <mxGeometry width="46.34482758620703" height="30" as="geometry">
            <mxRectangle width="46.34482758620703" height="30" as="alternateBounds" />
          </mxGeometry>
        </mxCell>
        <mxCell id="0b7gcQ_teyY_5R-YkqwQ-36" value="master" style="shape=partialRectangle;connectable=0;fillColor=none;top=0;left=0;bottom=0;right=0;align=left;spacingLeft=6;overflow=hidden;whiteSpace=wrap;html=1;" vertex="1" parent="0b7gcQ_teyY_5R-YkqwQ-34">
          <mxGeometry x="46.34482758620703" width="133.65517241379297" height="30" as="geometry">
            <mxRectangle width="133.65517241379297" height="30" as="alternateBounds" />
          </mxGeometry>
        </mxCell>
        <mxCell id="0b7gcQ_teyY_5R-YkqwQ-37" value="" style="shape=tableRow;horizontal=0;startSize=0;swimlaneHead=0;swimlaneBody=0;fillColor=none;collapsible=0;dropTarget=0;points=[[0,0.5],[1,0.5]];portConstraint=eastwest;top=0;left=0;right=0;bottom=0;" vertex="1" parent="0b7gcQ_teyY_5R-YkqwQ-30">
          <mxGeometry y="60" width="180" height="30" as="geometry" />
        </mxCell>
        <mxCell id="0b7gcQ_teyY_5R-YkqwQ-38" value="integer" style="shape=partialRectangle;connectable=0;fillColor=none;top=0;left=0;bottom=0;right=0;editable=1;overflow=hidden;whiteSpace=wrap;html=1;" vertex="1" parent="0b7gcQ_teyY_5R-YkqwQ-37">
          <mxGeometry width="46.34482758620703" height="30" as="geometry">
            <mxRectangle width="46.34482758620703" height="30" as="alternateBounds" />
          </mxGeometry>
        </mxCell>
        <mxCell id="0b7gcQ_teyY_5R-YkqwQ-39" value="vin" style="shape=partialRectangle;connectable=0;fillColor=none;top=0;left=0;bottom=0;right=0;align=left;spacingLeft=6;overflow=hidden;whiteSpace=wrap;html=1;" vertex="1" parent="0b7gcQ_teyY_5R-YkqwQ-37">
          <mxGeometry x="46.34482758620703" width="133.65517241379297" height="30" as="geometry">
            <mxRectangle width="133.65517241379297" height="30" as="alternateBounds" />
          </mxGeometry>
        </mxCell>
        <mxCell id="0b7gcQ_teyY_5R-YkqwQ-40" value="" style="shape=tableRow;horizontal=0;startSize=0;swimlaneHead=0;swimlaneBody=0;fillColor=none;collapsible=0;dropTarget=0;points=[[0,0.5],[1,0.5]];portConstraint=eastwest;top=0;left=0;right=0;bottom=0;" vertex="1" parent="0b7gcQ_teyY_5R-YkqwQ-30">
          <mxGeometry y="90" width="180" height="30" as="geometry" />
        </mxCell>
        <mxCell id="0b7gcQ_teyY_5R-YkqwQ-41" value="text" style="shape=partialRectangle;connectable=0;fillColor=none;top=0;left=0;bottom=0;right=0;editable=1;overflow=hidden;whiteSpace=wrap;html=1;" vertex="1" parent="0b7gcQ_teyY_5R-YkqwQ-40">
          <mxGeometry width="46.34482758620703" height="30" as="geometry">
            <mxRectangle width="46.34482758620703" height="30" as="alternateBounds" />
          </mxGeometry>
        </mxCell>
        <mxCell id="0b7gcQ_teyY_5R-YkqwQ-42" value="operation" style="shape=partialRectangle;connectable=0;fillColor=none;top=0;left=0;bottom=0;right=0;align=left;spacingLeft=6;overflow=hidden;whiteSpace=wrap;html=1;" vertex="1" parent="0b7gcQ_teyY_5R-YkqwQ-40">
          <mxGeometry x="46.34482758620703" width="133.65517241379297" height="30" as="geometry">
            <mxRectangle width="133.65517241379297" height="30" as="alternateBounds" />
          </mxGeometry>
        </mxCell>
        <mxCell id="0b7gcQ_teyY_5R-YkqwQ-55" value="" style="shape=tableRow;horizontal=0;startSize=0;swimlaneHead=0;swimlaneBody=0;fillColor=none;collapsible=0;dropTarget=0;points=[[0,0.5],[1,0.5]];portConstraint=eastwest;top=0;left=0;right=0;bottom=0;" vertex="1" parent="0b7gcQ_teyY_5R-YkqwQ-30">
          <mxGeometry y="120" width="180" height="30" as="geometry" />
        </mxCell>
        <mxCell id="0b7gcQ_teyY_5R-YkqwQ-56" value="integer" style="shape=partialRectangle;connectable=0;fillColor=none;top=0;left=0;bottom=0;right=0;editable=1;overflow=hidden;" vertex="1" parent="0b7gcQ_teyY_5R-YkqwQ-55">
          <mxGeometry width="46.34482758620703" height="30" as="geometry">
            <mxRectangle width="46.34482758620703" height="30" as="alternateBounds" />
          </mxGeometry>
        </mxCell>
        <mxCell id="0b7gcQ_teyY_5R-YkqwQ-57" value="number_of_hours" style="shape=partialRectangle;connectable=0;fillColor=none;top=0;left=0;bottom=0;right=0;align=left;spacingLeft=6;overflow=hidden;" vertex="1" parent="0b7gcQ_teyY_5R-YkqwQ-55">
          <mxGeometry x="46.34482758620703" width="133.65517241379297" height="30" as="geometry">
            <mxRectangle width="133.65517241379297" height="30" as="alternateBounds" />
          </mxGeometry>
        </mxCell>
        <mxCell id="0b7gcQ_teyY_5R-YkqwQ-59" value="" style="shape=tableRow;horizontal=0;startSize=0;swimlaneHead=0;swimlaneBody=0;fillColor=none;collapsible=0;dropTarget=0;points=[[0,0.5],[1,0.5]];portConstraint=eastwest;top=0;left=0;right=0;bottom=0;" vertex="1" parent="0b7gcQ_teyY_5R-YkqwQ-30">
          <mxGeometry y="150" width="180" height="30" as="geometry" />
        </mxCell>
        <mxCell id="0b7gcQ_teyY_5R-YkqwQ-60" value="integer" style="shape=partialRectangle;connectable=0;fillColor=none;top=0;left=0;bottom=0;right=0;editable=1;overflow=hidden;" vertex="1" parent="0b7gcQ_teyY_5R-YkqwQ-59">
          <mxGeometry width="46.34482758620703" height="30" as="geometry">
            <mxRectangle width="46.34482758620703" height="30" as="alternateBounds" />
          </mxGeometry>
        </mxCell>
        <mxCell id="0b7gcQ_teyY_5R-YkqwQ-61" value="price_of_repair" style="shape=partialRectangle;connectable=0;fillColor=none;top=0;left=0;bottom=0;right=0;align=left;spacingLeft=6;overflow=hidden;" vertex="1" parent="0b7gcQ_teyY_5R-YkqwQ-59">
          <mxGeometry x="46.34482758620703" width="133.65517241379297" height="30" as="geometry">
            <mxRectangle width="133.65517241379297" height="30" as="alternateBounds" />
          </mxGeometry>
        </mxCell>
        <mxCell id="0b7gcQ_teyY_5R-YkqwQ-62" value="" style="shape=tableRow;horizontal=0;startSize=0;swimlaneHead=0;swimlaneBody=0;fillColor=none;collapsible=0;dropTarget=0;points=[[0,0.5],[1,0.5]];portConstraint=eastwest;top=0;left=0;right=0;bottom=0;" vertex="1" parent="0b7gcQ_teyY_5R-YkqwQ-30">
          <mxGeometry y="180" width="180" height="30" as="geometry" />
        </mxCell>
        <mxCell id="0b7gcQ_teyY_5R-YkqwQ-63" value="integer" style="shape=partialRectangle;connectable=0;fillColor=none;top=0;left=0;bottom=0;right=0;editable=1;overflow=hidden;" vertex="1" parent="0b7gcQ_teyY_5R-YkqwQ-62">
          <mxGeometry width="46.34482758620703" height="30" as="geometry">
            <mxRectangle width="46.34482758620703" height="30" as="alternateBounds" />
          </mxGeometry>
        </mxCell>
        <mxCell id="0b7gcQ_teyY_5R-YkqwQ-64" value="manufacture_year" style="shape=partialRectangle;connectable=0;fillColor=none;top=0;left=0;bottom=0;right=0;align=left;spacingLeft=6;overflow=hidden;" vertex="1" parent="0b7gcQ_teyY_5R-YkqwQ-62">
          <mxGeometry x="46.34482758620703" width="133.65517241379297" height="30" as="geometry">
            <mxRectangle width="133.65517241379297" height="30" as="alternateBounds" />
          </mxGeometry>
        </mxCell>
        <mxCell id="0b7gcQ_teyY_5R-YkqwQ-65" value="" style="shape=tableRow;horizontal=0;startSize=0;swimlaneHead=0;swimlaneBody=0;fillColor=none;collapsible=0;dropTarget=0;points=[[0,0.5],[1,0.5]];portConstraint=eastwest;top=0;left=0;right=0;bottom=0;" vertex="1" parent="0b7gcQ_teyY_5R-YkqwQ-30">
          <mxGeometry y="210" width="180" height="30" as="geometry" />
        </mxCell>
        <mxCell id="0b7gcQ_teyY_5R-YkqwQ-66" value="text" style="shape=partialRectangle;connectable=0;fillColor=none;top=0;left=0;bottom=0;right=0;editable=1;overflow=hidden;" vertex="1" parent="0b7gcQ_teyY_5R-YkqwQ-65">
          <mxGeometry width="46.34482758620703" height="30" as="geometry">
            <mxRectangle width="46.34482758620703" height="30" as="alternateBounds" />
          </mxGeometry>
        </mxCell>
        <mxCell id="0b7gcQ_teyY_5R-YkqwQ-67" value="manufacturer" style="shape=partialRectangle;connectable=0;fillColor=none;top=0;left=0;bottom=0;right=0;align=left;spacingLeft=6;overflow=hidden;" vertex="1" parent="0b7gcQ_teyY_5R-YkqwQ-65">
          <mxGeometry x="46.34482758620703" width="133.65517241379297" height="30" as="geometry">
            <mxRectangle width="133.65517241379297" height="30" as="alternateBounds" />
          </mxGeometry>
        </mxCell>
        <mxCell id="0b7gcQ_teyY_5R-YkqwQ-68" value="" style="shape=tableRow;horizontal=0;startSize=0;swimlaneHead=0;swimlaneBody=0;fillColor=none;collapsible=0;dropTarget=0;points=[[0,0.5],[1,0.5]];portConstraint=eastwest;top=0;left=0;right=0;bottom=0;" vertex="1" parent="0b7gcQ_teyY_5R-YkqwQ-30">
          <mxGeometry y="240" width="180" height="30" as="geometry" />
        </mxCell>
        <mxCell id="0b7gcQ_teyY_5R-YkqwQ-69" value="text" style="shape=partialRectangle;connectable=0;fillColor=none;top=0;left=0;bottom=0;right=0;editable=1;overflow=hidden;" vertex="1" parent="0b7gcQ_teyY_5R-YkqwQ-68">
          <mxGeometry width="46.34482758620703" height="30" as="geometry">
            <mxRectangle width="46.34482758620703" height="30" as="alternateBounds" />
          </mxGeometry>
        </mxCell>
        <mxCell id="0b7gcQ_teyY_5R-YkqwQ-70" value="model" style="shape=partialRectangle;connectable=0;fillColor=none;top=0;left=0;bottom=0;right=0;align=left;spacingLeft=6;overflow=hidden;" vertex="1" parent="0b7gcQ_teyY_5R-YkqwQ-68">
          <mxGeometry x="46.34482758620703" width="133.65517241379297" height="30" as="geometry">
            <mxRectangle width="133.65517241379297" height="30" as="alternateBounds" />
          </mxGeometry>
        </mxCell>
        <mxCell id="0b7gcQ_teyY_5R-YkqwQ-71" value="" style="edgeStyle=orthogonalEdgeStyle;fontSize=12;html=1;endArrow=ERoneToMany;rounded=0;entryX=0;entryY=0.5;entryDx=0;entryDy=0;exitX=1;exitY=0.5;exitDx=0;exitDy=0;" edge="1" parent="1" source="0b7gcQ_teyY_5R-YkqwQ-5" target="0b7gcQ_teyY_5R-YkqwQ-34">
          <mxGeometry width="100" height="100" relative="1" as="geometry">
            <mxPoint x="358" y="104" as="sourcePoint" />
            <mxPoint x="458" y="4" as="targetPoint" />
          </mxGeometry>
        </mxCell>
        <mxCell id="0b7gcQ_teyY_5R-YkqwQ-72" value="" style="edgeStyle=orthogonalEdgeStyle;fontSize=12;html=1;endArrow=ERoneToMany;rounded=0;exitX=1;exitY=0.5;exitDx=0;exitDy=0;" edge="1" parent="1" source="0b7gcQ_teyY_5R-YkqwQ-27" target="0b7gcQ_teyY_5R-YkqwQ-37">
          <mxGeometry width="100" height="100" relative="1" as="geometry">
            <mxPoint x="268" y="446" as="sourcePoint" />
            <mxPoint x="368" y="346" as="targetPoint" />
          </mxGeometry>
        </mxCell>
      </root>
    </mxGraphModel>
  </diagram>
</mxfile>
